<?xml version="1.0" encoding="utf-8"?>
<!-- Generator: Adobe Illustrator 17.0.0, SVG Export Plug-In . SVG Version: 6.00 Build 0)  -->
<!DOCTYPE svg PUBLIC "-//W3C//DTD SVG 1.1//EN" "http://www.w3.org/Graphics/SVG/1.1/DTD/svg11.dtd">
<svg version="1.1" id="Layer_1" xmlns="http://www.w3.org/2000/svg" xmlns:xlink="http://www.w3.org/1999/xlink" x="0px" y="0px"
	 width="300.259px" height="250.969px" viewBox="0 0 300.259 250.969" enable-background="new 0 0 300.259 250.969"
	 xml:space="preserve">
<g>
	<path fill="#FFFFFF" d="M0,250.969C0,167.312,0,83.656,0,0c83.656,0,167.312,0,250.969,0c0,83.656,0,167.312,0,250.969
		C167.312,250.969,83.656,250.969,0,250.969z M96.043,48.698c-5.86,8.033-5.86,8.034-14.678,6.162
		c-6.803-1.444-13.585-2.998-20.423-4.249c-1.515-0.277-3.225,0.513-4.846,0.812c0.845,1.545,1.298,3.698,2.598,4.534
		C66.23,60.8,73.851,65.54,81.681,69.885c3.802,2.109,2.207,5.227,2.13,7.875c-0.041,1.423-1.655,3.396-3.065,4.084
		c-6.702,3.273-13.627,6.089-20.346,9.328c-1.168,0.563-1.733,2.378-2.576,3.614c1.319,0.728,2.567,1.802,3.977,2.091
		c1.58,0.324,3.307-0.061,4.969-0.14c5.319-0.254,10.657-0.316,15.952-0.819c4.874-0.464,4.743,3.897,6.332,6.381
		c0.557,0.872-0.379,3.284-1.319,4.43c-5.174,6.303-10.621,12.382-15.817,18.669c-0.913,1.105-1.076,2.829-1.585,4.267
		c1.665-0.165,3.615,0.173,4.948-0.581c6.938-3.921,13.748-8.071,20.536-12.25c2.132-1.312,3.951-2.038,6.181-0.108
		c2.425,2.1,6.505,2.3,6.01,7.308c-0.753,7.61-0.836,15.296-0.939,22.953c-0.026,1.934,0.953,3.882,1.471,5.824
		c1.419-1.595,3.286-2.975,4.177-4.825c3.02-6.269,5.513-12.796,8.623-19.016c0.827-1.655,3.015-3.357,4.801-3.642
		c2.983-0.475,6.339-1.467,8.408,2.838c3.37,7.014,7.437,13.696,11.283,20.476c0.922,1.624,2.134,3.084,3.213,4.619
		c0.545-0.075,1.091-0.15,1.636-0.226c0.288-1.907,0.897-3.83,0.809-5.719c-0.372-7.971-1.042-15.929-1.369-23.901
		c-0.057-1.395,0.598-3.364,1.627-4.155c2.977-2.289,6.312-4.113,9.52-6.127c7.456,4.392,14.855,8.835,22.368,13.078
		c1.076,0.608,2.698,0.25,4.068,0.339c-0.096-1.218,0.28-2.837-0.361-3.594c-7.396-8.739-14.946-17.347-22.591-26.146
		c-3.265,2.445-6.098,4.469-8.825,6.627c-8.255,6.534-17.03,11.397-28.126,10.749c-13.227-0.773-23.418-6.69-29.415-18.284
		c-6.114-11.82-5.221-23.936,2.679-34.843c7.988-11.028,19.455-15.202,32.483-12.677c11.487,2.226,17.252,10.994,19.73,21.981
		c1.811,8.027-0.611,14.938-6.642,20.23c-5.903,5.181-12.905,6.322-20.47,3.772c-5.758-1.941-9.795-5.796-9.877-11.782
		c-0.081-5.872,2.988-10.847,8.453-13.74c5.274-2.791,11.623-0.232,12.861,5.024c0.99,4.202-1.57,7.762-5.464,7.286
		c0.194-0.646,0.561-1.268,0.527-1.867c-0.112-1.951-0.37-3.894-0.572-5.841c-2.133,0.411-4.645,0.25-6.319,1.357
		c-3.093,2.045-4.59,5.173-3.183,9.102c1.461,4.079,3.97,6.848,8.525,7.274c8.842,0.828,16.308-5.88,16.846-15.147
		c0.587-10.122-6.615-18.555-16.255-19.033c-12.48-0.619-24.763,9.678-25.71,21.554c-1.074,13.47,9.794,26.32,23.273,27.519
		c13.92,1.238,27.69-7.626,33.98-22.132c1.417-3.268,3.201-5.224,6.865-6.217c8.459-2.292,16.779-5.126,25.073-7.977
		c1.466-0.504,2.537-2.158,3.79-3.281c-1.598-0.816-3.144-2.196-4.803-2.348c-5.962-0.546-11.989-1.168-17.941-0.84
		c-7.387,0.407-12.976-0.817-15.729-8.848c-0.785-2.289-1.244-3.611-0.021-5.656c3.829-6.405,7.596-12.852,11.161-19.405
		c0.754-1.385,0.55-3.291,0.788-4.958c-1.598,0.4-3.518,0.368-4.737,1.276c-5.068,3.776-10.109,7.63-14.795,11.86
		c-3.316,2.994-6.178,4.546-10.39,1.576c-2.102-1.482-5.061-1.71-7.29-3.068c-1.688-1.029-3.581-2.734-4.091-4.509
		c-2.144-7.465-3.699-15.098-5.738-22.597c-0.35-1.288-2.006-2.222-3.059-3.319c-0.788,1.284-2.082,2.494-2.28,3.864
		c-1.121,7.724-1.892,15.499-2.955,23.232c-0.728,5.291-7.972,8.304-11.982,4.988c-6.279-5.193-12.351-10.64-18.695-15.751
		c-1.44-1.16-3.633-1.387-5.48-2.043c0.319,1.885,0.142,4.057,1.04,5.606C86.473,33.274,91.25,40.863,96.043,48.698z"/>
	<path d="M96.043,48.698c-4.793-7.835-9.569-15.424-14.064-23.176c-0.898-1.549-0.721-3.721-1.04-5.606
		c1.847,0.656,4.04,0.882,5.48,2.043c6.344,5.111,12.416,10.558,18.695,15.751c4.01,3.317,11.255,0.304,11.982-4.988
		c1.063-7.734,1.835-15.508,2.955-23.232c0.199-1.369,1.492-2.58,2.28-3.864c1.053,1.097,2.709,2.03,3.059,3.319
		c2.039,7.499,3.594,15.132,5.738,22.597c0.51,1.775,2.402,3.48,4.091,4.509c2.228,1.358,5.187,1.585,7.29,3.068
		c4.212,2.97,7.074,1.418,10.39-1.576c4.686-4.23,9.727-8.084,14.795-11.86c1.219-0.908,3.14-0.876,4.737-1.276
		c-0.237,1.666-0.034,3.572-0.788,4.958c-3.565,6.553-7.332,13-11.161,19.405c-1.223,2.046-0.763,3.368,0.021,5.656
		c2.753,8.032,8.342,9.255,15.729,8.848c5.952-0.328,11.979,0.294,17.941,0.84c1.659,0.152,3.205,1.532,4.803,2.348
		c-1.253,1.123-2.324,2.777-3.79,3.281c-8.294,2.851-16.614,5.685-25.073,7.977c-3.664,0.993-5.448,2.949-6.865,6.217
		c-6.29,14.506-20.06,23.371-33.98,22.132c-13.479-1.199-24.347-14.049-23.273-27.519c0.947-11.876,13.23-22.173,25.71-21.554
		c9.64,0.478,16.842,8.911,16.255,19.033c-0.538,9.267-8.004,15.975-16.846,15.147c-4.555-0.426-7.063-3.195-8.525-7.274
		c-1.407-3.929,0.089-7.057,3.183-9.102c1.674-1.107,4.185-0.946,6.319-1.357c0.202,1.946,0.46,3.889,0.572,5.841
		c0.034,0.599-0.333,1.221-0.527,1.867c3.894,0.476,6.454-3.084,5.464-7.286c-1.238-5.256-7.588-7.815-12.861-5.024
		c-5.466,2.893-8.534,7.868-8.453,13.74c0.082,5.986,4.119,9.84,9.877,11.782c7.565,2.551,14.567,1.409,20.47-3.772
		c6.03-5.292,8.452-12.203,6.642-20.23c-2.478-10.987-8.243-19.755-19.73-21.981c-13.028-2.525-24.495,1.65-32.483,12.677
		c-7.9,10.907-8.794,23.023-2.679,34.843c5.997,11.594,16.188,17.511,29.415,18.284c11.097,0.649,19.871-4.215,28.126-10.749
		c2.727-2.158,5.56-4.182,8.825-6.627c7.645,8.799,15.195,17.407,22.591,26.146c0.641,0.757,0.265,2.376,0.361,3.594
		c-1.369-0.089-2.991,0.269-4.068-0.339c-7.512-4.243-14.911-8.687-22.368-13.078c-3.207,2.014-6.542,3.838-9.52,6.127
		c-1.028,0.791-1.684,2.76-1.627,4.155c0.328,7.972,0.997,15.93,1.369,23.901c0.088,1.89-0.521,3.812-0.809,5.719
		c-0.545,0.075-1.091,0.15-1.636,0.226c-1.079-1.535-2.292-2.994-3.213-4.619c-3.847-6.78-7.913-13.462-11.283-20.476
		c-2.069-4.306-5.425-3.313-8.408-2.838c-1.785,0.284-3.973,1.987-4.801,3.642c-3.11,6.22-5.603,12.747-8.623,19.016
		c-0.891,1.85-2.757,3.23-4.177,4.825c-0.517-1.942-1.497-3.889-1.471-5.824c0.103-7.657,0.186-15.343,0.939-22.953
		c0.496-5.008-3.584-5.208-6.01-7.308c-2.229-1.93-4.049-1.205-6.181,0.108c-6.788,4.179-13.598,8.329-20.536,12.25
		c-1.333,0.753-3.283,0.415-4.948,0.581c0.509-1.438,0.672-3.162,1.585-4.267c5.195-6.286,10.643-12.365,15.817-18.669
		c0.94-1.146,1.877-3.558,1.319-4.43c-1.588-2.484-1.457-6.845-6.332-6.381c-5.296,0.504-10.633,0.566-15.952,0.819
		c-1.663,0.079-3.389,0.464-4.969,0.14c-1.409-0.289-2.657-1.363-3.977-2.091c0.843-1.237,1.408-3.051,2.576-3.614
		c6.72-3.239,13.644-6.055,20.346-9.328c1.41-0.689,3.024-2.661,3.065-4.084c0.076-2.648,1.672-5.766-2.13-7.875
		C73.851,65.54,66.23,60.8,58.694,55.956c-1.3-0.836-1.754-2.989-2.598-4.534c1.62-0.299,3.331-1.089,4.846-0.812
		c6.838,1.251,13.621,2.805,20.423,4.249C90.183,56.732,90.183,56.731,96.043,48.698z"/>
</g>
<text transform="matrix(1 0 0 1 -1.212645e-04 202.0001)" font-family="'Festival Nights JL'" font-size="54">FEZZEE</text>
<text transform="matrix(0.0194 0.9998 -0.9998 0.0194 262.1343 153.2602)" font-family="'Festival Nights JL'" font-size="18">.COM</text>
<text transform="matrix(1 0 0 1 0 238.7999)" font-family="'Festival Nights JL'" font-size="28">......... on the way .........</text>
</svg>
